<?xml version="1.0" encoding="UTF-8" standalone="no"?>
<!DOCTYPE svg PUBLIC "-//W3C//DTD SVG 1.1//EN" "http://www.w3.org/Graphics/SVG/1.1/DTD/svg11.dtd">
<svg xmlns="http://www.w3.org/2000/svg" xmlns:xlink="http://www.w3.org/1999/xlink" version="1.1" width="375pt" height="375pt" viewBox="0 0 375 375">
<g enable-background="new">
<clipPath id="cp0">
<path transform="matrix(.24,0,0,.24,0,0)" d="M 0 0 L 1562.5 0 L 1562.5 1562.5 L 0 1562.5 Z " fill-rule="evenodd"/>
</clipPath>
<g clip-path="url(#cp0)">
<path transform="matrix(.75,0,0,.75,0,0)" d="M 0 0 L 500 0 L 500 500 L 0 500 Z " fill="#ffffff"/>
</g>
<clipPath id="cp1">
<path transform="matrix(.24,0,0,.24,0,0)" d="M 0 0 L 1562.5 0 L 1562.5 1562.5 L 0 1562.5 Z " fill-rule="evenodd"/>
</clipPath>
<g clip-path="url(#cp1)">
<path transform="matrix(.75,0,0,.75,0,0)" d="M 0 0 L 500 0 L 500 500 L 0 500 Z " fill="#ffffff"/>
</g>
<clipPath id="cp2">
<path transform="matrix(.24,0,0,.24,0,0)" d="M 259.80024 533.80886 L 1300.1912 533.80886 L 1300.1912 1027.3838 L 259.80024 1027.3838 Z " fill-rule="evenodd"/>
</clipPath>
<g clip-path="url(#cp2)">
<path transform="matrix(.85221579,0,0,.85221579,62.352056,128.11412)" stroke-width="5.280353" stroke-linecap="butt" stroke-miterlimit="4" stroke-linejoin="miter" fill="none" stroke="#000000" d="M 0 0 L 293.20606 0 L 293.20606 139.35938 L 0 139.35938 Z "/>
</g>
<clipPath id="cp3">
<path transform="matrix(.24,0,0,.24,0,0)" d="M 338.7708 580.31326 L 805.9083 580.31326 L 805.9083 982.1869 L 338.7708 982.1869 Z " fill-rule="evenodd"/>
</clipPath>
<g clip-path="url(#cp3)">
<path transform="matrix(.37675653,0,0,.37675653,81.30499,139.27518)" d="M 0 0 L 298 0 L 298 256 L 0 256 Z "/>
</g>
<clipPath id="cp4">
<path transform="matrix(.24,0,0,.24,0,0)" d="M 0 0 L 1562.5 0 L 1562.5 1562.5 L 0 1562.5 Z " fill-rule="evenodd"/>
</clipPath>
<g clip-path="url(#cp4)">
<g id="Layer-1" data-name="P">
<g id="Layer-2" data-name="P">
</g>
<symbol id="font_5_3f">
<path d="M 0 0 L 0 .70000007 L .08800001 .70000007 L .08800001 .08400001 L .42800004 .08400001 L .42800004 0 L 0 0 Z "/>
</symbol>
<symbol id="font_5_3">
<path d="M 0 0 L .28800003 .70000007 L .37000004 .70000007 L .658 0 L .565 0 L .49900005 .15900001 L .158 .15900001 L .09400001 0 L 0 0 M .192 .24100001 L .46600003 .24100001 L .32900004 .577 L .192 .24100001 Z "/>
</symbol>
<symbol id="font_5_58">
<path d="M 0 0 L 0 .70000007 L .23700002 .70000007 C .28966669 .70000007 .33533336 .69033339 .374 .671 C .41333334 .6516667 .4436667 .6243334 .46500004 .58900007 C .48633338 .5543334 .49700008 .513 .49700005 .46500004 C .49700008 .41700004 .48633338 .37533335 .46500004 .34 C .4436667 .30533336 .41333334 .27833335 .374 .259 C .33533336 .23966666 .28966669 .23 .23700002 .23 L .08800001 .23 L .08800001 0 L 0 0 M .08800001 .312 L .23500002 .312 C .34966669 .312 .40699999 .3626667 .407 .46400003 C .40699999 .56533339 .34966669 .61600008 .23500002 .61600008 L .08800001 .61600008 L .08800001 .312 Z "/>
</symbol>
<use xlink:href="#font_5_3f" transform="matrix(46.287874,0,0,-46.287874,94.77649,202.9166)" fill="#ffffff"/>
<use xlink:href="#font_5_3" transform="matrix(46.287874,0,0,-46.287874,120.31894,202.9166)" fill="#ffffff"/>
<use xlink:href="#font_5_58" transform="matrix(46.287874,0,0,-46.287874,159.79198,202.9166)" fill="#ffffff"/>
</g>
<g id="Layer-1" data-name="H1">
<g id="Layer-2" data-name="P">
</g>
<symbol id="font_6_2c">
<path d="M .418 0 L .418 .263 L .20200002 .263 L .20200002 0 L 0 0 L 0 .70000007 L .20200002 .70000007 L .20200002 .44900004 L .418 .44900004 L .418 .70000007 L .62 .70000007 L .62 0 L .418 0 Z "/>
</symbol>
<symbol id="font_6_5a">
<path d="M .381 .172 C .32500003 .172 .27366669 .18066669 .227 .19800002 C .181 .216 .14099999 .24133335 .107 .27400003 C .07300001 .3066667 .046666668 .34533335 .028 .39000003 C .009333334 .43466667 0 .4836667 0 .53700008 C 0 .59033337 .009333334 .6393333 .028 .684 C .046666668 .7286667 .07300001 .7673333 .107 .8000001 C .14099999 .8326667 .181 .85766676 .227 .875 C .27366669 .89300009 .32500003 .9020001 .381 .90200009 C .437 .9020001 .488 .89300009 .53400006 .875 C .5806667 .85766676 .62100008 .8326667 .65500006 .8000001 C .68900009 .7673333 .7153334 .7286667 .734 .684 C .7526667 .6393333 .7620001 .59033337 .7620001 .53700008 C .7620001 .46366669 .74433347 .3986667 .70900008 .342 C .6743334 .286 .6273334 .24333334 .5680001 .214 L .57600006 .19500001 C .58533337 .17366667 .5956667 .15966667 .60700008 .153 C .6183334 .14566668 .6383334 .142 .66700008 .142 L .71800008 .142 L .71800008 0 L .614 0 C .51533338 0 .44733335 .043333334 .41000004 .13 L .39200003 .172 L .381 .172 M .20500002 .53700008 C .205 .50233337 .21233334 .47133336 .227 .444 C .24233334 .41733337 .26333333 .39633335 .29 .381 C .3166667 .36633338 .347 .35900007 .381 .35900004 C .41566668 .35900007 .446 .36633338 .47200004 .381 C .49866668 .39633335 .51933339 .41733337 .53400006 .444 C .5493334 .47133336 .55700007 .50233337 .55700007 .53700008 C .55700007 .5723334 .5493334 .60333338 .53400006 .63 C .51933339 .6566667 .49866668 .67733338 .47200004 .69200006 C .446 .7073334 .41566668 .715 .381 .71500006 C .347 .715 .3166667 .7073334 .29 .69200006 C .26333333 .67733338 .24233334 .6566667 .227 .63 C .21233334 .60333338 .205 .5723334 .20500002 .53700008 Z "/>
</symbol>
<use xlink:href="#font_6_2c" transform="matrix(46.286489,0,0,-46.286489,222.59177,203.55568)"/>
<use xlink:href="#font_6_5a" transform="matrix(46.286489,0,0,-46.286489,256.28627,212.21126)"/>
</g>
</g>
</g>
</svg>
